Coordinates
version=1
nRows=17
nColumns=24
inDegrees=yes

Units are S.I. units (second, meters, Newtons, ...)
Angles are in degrees.

endheader
time	pelvis_tilt	pelvis_list	pelvis_rotation	pelvis_tx	pelvis_ty	pelvis_tz	hip_flexion_r	hip_adduction_r	hip_rotation_r	knee_angle_r	ankle_angle_r	subtalar_angle_r	mtp_angle_r	hip_flexion_l	hip_adduction_l	hip_rotation_l	knee_angle_l	ankle_angle_l	subtalar_angle_l	mtp_angle_l	lumbar_extension	lumbar_bending	lumbar_rotation
      0.93750000	      2.46591838	     -1.49470257	     -0.41427803	     -0.37451950	      1.07393279	      0.31852972	      4.46193132	      8.15656530	     -1.99240443	    -13.19268822	      2.97819332	    -12.28546572	      0.52891693	      9.23643018	     -1.89548697	     -0.45151138	    -53.64097389	      5.72439798	    -15.98517456	     -2.73071521	      3.01695954	      3.87787843	     -0.20640788
      0.94166667	      2.47709588	     -1.50053064	     -0.42976773	     -0.36942136	      1.07430281	      0.31883942	      4.05269418	      8.19867670	     -1.79474997	    -13.00364376	      3.08106504	    -12.23494630	      0.51734538	      9.71941121	     -1.86018670	     -0.11239746	    -53.23413828	      5.94198580	    -16.37089255	     -2.84510844	      2.99725997	      3.79623660	     -0.12430946
      0.94583333	      2.49020515	     -1.48701271	     -0.50015484	     -0.36436037	      1.07466513	      0.31902134	      3.66002663	      8.19850434	     -1.65802328	    -12.86432097	      3.24784344	    -12.23211935	      0.50170150	     10.18173293	     -1.78693215	      0.18471030	    -52.79266717	      6.25017021	    -16.89578555	     -2.98465910	      2.96482818	      3.75350606	     -0.03125621
      0.95000000	      2.50096581	     -1.45597769	     -0.62937559	     -0.35937878	      1.07499949	      0.31914048	      3.29698667	      8.16218318	     -1.59570462	    -12.78248089	      3.46717796	    -12.21305618	      0.46788849	     10.63318342	     -1.68741391	      0.43413844	    -52.31209790	      6.45811310	    -17.52895250	     -3.26043545	      2.90369013	      3.75749365	      0.12472183
      0.95416667	      2.48794455	     -1.45313691	     -0.69352660	     -0.35441533	      1.07526635	      0.31931740	      2.93031200	      8.17025238	     -1.42968705	    -12.62168074	      3.52161394	    -12.16355748	      0.46058801	     11.12285351	     -1.62897385	      0.76629662	    -51.83404138	      6.55649766	    -17.65634639	     -3.32371995	      2.85599682	      3.73454050	      0.16980470
      0.95833333	      2.47834038	     -1.46137530	     -0.75891336	     -0.34940764	      1.07551872	      0.31946199	      2.55107793	      8.18667765	     -1.29081137	    -12.45098259	      3.62315799	    -12.13557711	      0.45252182	     11.59482425	     -1.58206611	      1.09140687	    -51.33247788	      6.72499517	    -17.84118605	     -3.38940277	      2.83172781	      3.71878438	      0.22533234
      0.96250000	      2.47063635	     -1.48044673	     -0.82051691	     -0.34443336	      1.07573614	      0.31960794	      2.17045148	      8.21434986	     -1.16845923	    -12.27660902	      3.75316423	    -12.10872255	      0.44312323	     12.06463347	     -1.54962930	      1.41106870	    -50.81934269	      6.90882000	    -18.03239489	     -3.46195411	      2.81468787	      3.71553055	      0.29200271
      0.96666667	      2.45794476	     -1.50288423	     -0.88973384	     -0.33948920	      1.07591948	      0.31975218	      1.79710824	      8.24379452	     -1.06549636	    -12.10022687	      3.87984559	    -12.07921434	      0.43387783	     12.53475742	     -1.52262101	      1.72014629	    -50.28630576	      7.06275446	    -18.16965132	     -3.52936596	      2.78666364	      3.72695656	      0.35645472
      0.97083333	      2.45068928	     -1.55370725	     -0.91893489	     -0.33450957	      1.07607007	      0.31989867	      1.39875260	      8.31091015	     -0.96807034	    -11.89035116	      4.07119587	    -12.02954092	      0.41715644	     12.99952970	     -1.52988316	      2.04919430	    -49.75312464	      7.24326840	    -18.30506973	     -3.64098411	      2.79675601	      3.74694021	      0.46867593
      0.97500000	      2.41922853	     -1.57123716	     -1.01939353	     -0.32961138	      1.07618143	      0.31991259	      1.05128347	      8.31384661	     -0.87542999	    -11.73325548	      4.16514257	    -11.99061872	      0.40789821	     13.46959014	     -1.48471818	      2.36834487	    -49.17225599	      7.33591732	    -18.32279728	     -3.69943927	      2.74640130	      3.78264797	      0.52293220
      0.97916667	      2.40814527	     -1.63307469	     -1.03158341	     -0.32464837	      1.07627236	      0.32001902	      0.64508153	      8.38916309	     -0.77806403	    -11.48848469	      4.33627445	    -11.91687498	      0.39031066	     13.92863778	     -1.50025895	      2.71687706	    -48.60051244	      7.46887910	    -18.29522018	     -3.80266037	      2.76396793	      3.82918390	      0.63506183
      0.98333333	      2.37045873	     -1.66749852	     -1.11625288	     -0.31977185	      1.07631882	      0.31998739	      0.29467951	      8.40623044	     -0.68749835	    -11.30802338	      4.43388155	    -11.86607652	      0.37916008	     14.39590945	     -1.47198694	      3.05530245	    -47.98695458	      7.55559514	    -18.23016336	     -3.86360707	      2.71965604	      3.88425732	      0.69537739
      0.98750000	      2.36078418	     -1.75037164	     -1.10511913	     -0.31480156	      1.07634505	      0.32004140	     -0.12534034	      8.50266971	     -0.61256136	    -11.04154377	      4.62041895	    -11.77689554	      0.35426018	     14.84492754	     -1.50678397	      3.42155664	    -47.39452199	      7.68793361	    -18.02397163	     -3.98653503	      2.74738411	      3.96880910	      0.82857178
      0.99166667	      2.31231588	     -1.79249260	     -1.18997683	     -0.30995464	      1.07631326	      0.31996030	     -0.46898792	      8.52284580	     -0.52463698	    -10.84618687	      4.70344815	    -11.72286432	      0.34112227	     15.31109678	     -1.48336785	      3.76918212	    -46.74574410	      7.76875935	    -17.88727920	     -4.04708684	      2.69791733	      4.03351578	      0.88481763
      0.99583333	      2.29639553	     -1.88399544	     -1.16803054	     -0.30500666	      1.07626386	      0.31998433	     -0.89066690	      8.62828003	     -0.44523624	    -10.55088927	      4.85584763	    -11.63808562	      0.31624913	     15.75682985	     -1.52520427	      4.13462833	    -46.11849824	      7.87529651	    -17.57922781	     -4.15218625	      2.73458432	      4.13616245	      0.99629620
      1.00000000	      2.25730577	     -1.95864819	     -1.18786219	     -0.30010172	      1.07617341	      0.31992650	     -1.27152273	      8.69820496	     -0.37664666	    -10.29307245	      4.98203585	    -11.56596760	      0.28636779	     16.20915167	     -1.54047336	      4.49983191	    -45.45646396	      7.99345205	    -17.22601411	     -4.26579122	      2.72421525	      4.23957141	      1.10010012
      1.00416667	      2.21858022	     -2.04270064	     -1.21370822	     -0.29518151	      1.07605336	      0.31984508	     -1.65923550	      8.77652307	     -0.30202840	    -10.02953766	      5.08448231	    -11.50730761	      0.25467051	     16.65091254	     -1.56674142	      4.85281437	    -44.78196558	      8.10168542	    -16.87114687	     -4.37629089	      2.71828826	      4.35136193	      1.18922681
